<svg width="215" height="192" viewBox="0 0 215 192" fill="none" xmlns="http://www.w3.org/2000/svg">
<g opacity="0.7">
<mask id="path-1-inside-1_676_11519" fill="white">
<path d="M149 180C149 186.627 143.627 192 137 192H12C5.37258 192 0 186.627 0 180V46.5839C0 43.4013 1.26428 40.349 3.51472 38.0986L38.0986 3.51472C40.349 1.26428 43.4012 0 46.5838 0H137C143.627 0 149 5.37258 149 12V180Z"/>
</mask>
<path d="M149 180C149 186.627 143.627 192 137 192H12C5.37258 192 0 186.627 0 180V46.5839C0 43.4013 1.26428 40.349 3.51472 38.0986L38.0986 3.51472C40.349 1.26428 43.4012 0 46.5838 0H137C143.627 0 149 5.37258 149 12V180Z" fill="#F3F3F3"/>
<path d="M38.0986 3.51472L35.2701 0.686288L38.0986 3.51472ZM3.51472 38.0986L0.686292 35.2701L3.51472 38.0986ZM137 192V188H12V192V196H137V192ZM0 180H4V46.5839H0H-4V180H0ZM3.51472 38.0986L6.34315 40.927L40.927 6.34314L38.0986 3.51472L35.2701 0.686288L0.686292 35.2701L3.51472 38.0986ZM46.5838 0V4H137V0V-4H46.5838V0ZM149 12H145V180H149H153V12H149ZM137 0V4C141.418 4 145 7.58172 145 12H149H153C153 3.16344 145.837 -4 137 -4V0ZM38.0986 3.51472L40.927 6.34314C42.4273 4.84285 44.4621 4 46.5838 4V0V-4C42.3404 -4 38.2707 -2.31429 35.2701 0.686288L38.0986 3.51472ZM0 46.5839H4C4 44.4621 4.84286 42.4273 6.34315 40.927L3.51472 38.0986L0.686292 35.2701C-2.31429 38.2707 -4 42.3404 -4 46.5839H0ZM12 192V188C7.58172 188 4 184.418 4 180H0H-4C-4 188.837 3.16344 196 12 196V192ZM137 192V196C145.837 196 153 188.837 153 180H149H145C145 184.418 141.418 188 137 188V192Z" fill="#CBD0D4" mask="url(#path-1-inside-1_676_11519)"/>
</g>
<path d="M48 40C48 44.4183 44.4183 48 40 48H0V46.584C0 43.4014 1.26426 40.3491 3.51465 38.0986L38.0986 3.51465C40.3491 1.26425 43.4014 0 46.584 0H48V40Z" fill="#CBD0D4"/>
<path d="M89.4082 29.5781C90.7784 28.6289 92.5936 28.629 93.9639 29.5781L113.643 43.2119C116.865 45.4447 115.286 50.4997 111.365 50.5H108.187V64C108.187 66.209 106.396 67.9998 104.187 68H96V54H88V68H79.1865C76.9774 68 75.1865 66.2091 75.1865 64V50.5H72.0078C68.087 50.5 66.5067 45.4448 69.7295 43.2119L89.4082 29.5781Z" fill="#CBD0D4"/>
<path d="M33 85H113" stroke="#CCD0D9" stroke-width="4"/>
<path d="M33 98H104" stroke="#CCD0D9" stroke-width="4"/>
<path d="M33 111H92" stroke="#CCD0D9" stroke-width="4"/>
<path d="M33 162H65" stroke="#CCD0D9" stroke-width="4"/>
<path d="M129.501 128.002L117.249 140.253C116.744 141.054 116.067 141.771 115.218 142.339L87.3535 160.957C80.9848 165.212 73.3884 157.617 77.6436 151.248L96.2627 123.384C96.374 123.217 96.4921 123.058 96.6143 122.904L96.6045 122.894L96.6982 122.8C96.9845 122.454 97.2972 122.142 97.6318 121.866L110.499 109L129.501 128.002ZM182.751 36.7469C187.998 31.4997 196.506 31.4997 201.753 36.7469C207 41.9942 207 50.5017 201.753 55.7489L194.18 63.3221L199.071 68.2137L205.356 61.9286C207.526 59.759 211.044 59.7589 213.214 61.9286C215.383 64.0983 215.383 67.6163 213.214 69.786L167.929 115.071C165.759 117.241 162.241 117.241 160.071 115.071C157.902 112.901 157.902 109.384 160.071 107.214L191.214 76.0712L186.322 71.1796L134.969 122.533L115.967 103.53L182.751 36.7469Z" fill="#CBD0D4"/>
</svg>
