<svg width="20" height="20" viewBox="0 0 20 20" fill="none" xmlns="http://www.w3.org/2000/svg">
<path d="M9.9993 14.3962L6.54096 16.4795C6.38819 16.5767 6.22846 16.6184 6.0618 16.6045C5.89513 16.5906 5.7493 16.535 5.6243 16.4378C5.4993 16.3406 5.40208 16.2192 5.33263 16.0737C5.26319 15.9281 5.2493 15.7648 5.29096 15.5837L6.20763 11.6462L3.14513 9.00033C3.00624 8.87533 2.91958 8.73282 2.88513 8.57282C2.85069 8.41283 2.86096 8.25671 2.91596 8.10449C2.97096 7.95227 3.0543 7.82727 3.16596 7.72949C3.27763 7.63171 3.43041 7.56921 3.6243 7.54199L7.66596 7.18783L9.22846 3.47949C9.29791 3.31283 9.40569 3.18783 9.5518 3.10449C9.69791 3.02116 9.84708 2.97949 9.9993 2.97949C10.1515 2.97949 10.3007 3.02116 10.4468 3.10449C10.5929 3.18783 10.7007 3.31283 10.7701 3.47949L12.3326 7.18783L16.3743 7.54199C16.5687 7.56977 16.7215 7.63227 16.8326 7.72949C16.9437 7.82671 17.0271 7.95171 17.0826 8.10449C17.1382 8.25727 17.1487 8.41366 17.1143 8.57366C17.0799 8.73366 16.9929 8.87588 16.8535 9.00033L13.791 11.6462L14.7076 15.5837C14.7493 15.7642 14.7354 15.9275 14.666 16.0737C14.5965 16.2198 14.4993 16.3412 14.3743 16.4378C14.2493 16.5345 14.1035 16.59 13.9368 16.6045C13.7701 16.6189 13.6104 16.5773 13.4576 16.4795L9.9993 14.3962Z" fill="#121212"/>
</svg>
