<svg width="191" height="210" viewBox="0 0 191 210" fill="none" xmlns="http://www.w3.org/2000/svg">
<rect x="2" y="18" width="145" height="188" rx="10" fill="#F3F3F3" stroke="#CBD0D4" stroke-width="4"/>
<g opacity="0.7">
<mask id="path-2-inside-1_771_3759" fill="white">
<path d="M18 180C18 186.627 23.3726 192 30 192H155C161.627 192 167 186.627 167 180V46.5839C167 43.4013 165.736 40.349 163.485 38.0986L128.901 3.51472C126.651 1.26428 123.599 0 120.416 0H30C23.3726 0 18 5.37258 18 12V180Z"/>
</mask>
<path d="M18 180C18 186.627 23.3726 192 30 192H155C161.627 192 167 186.627 167 180V46.5839C167 43.4013 165.736 40.349 163.485 38.0986L128.901 3.51472C126.651 1.26428 123.599 0 120.416 0H30C23.3726 0 18 5.37258 18 12V180Z" fill="#F3F3F3"/>
<path d="M128.901 3.51472L131.73 0.686288L128.901 3.51472ZM163.485 38.0986L166.314 35.2701L163.485 38.0986ZM30 192V188H155V192V196H30V192ZM167 180H163V46.5839H167H171V180H167ZM163.485 38.0986L160.657 40.927L126.073 6.34314L128.901 3.51472L131.73 0.686288L166.314 35.2701L163.485 38.0986ZM120.416 0V4H30V0V-4H120.416V0ZM18 12H22V180H18H14V12H18ZM30 0V4C25.5817 4 22 7.58172 22 12H18H14C14 3.16344 21.1634 -4 30 -4V0ZM128.901 3.51472L126.073 6.34314C124.573 4.84285 122.538 4 120.416 4V0V-4C124.66 -4 128.729 -2.31429 131.73 0.686288L128.901 3.51472ZM167 46.5839H163C163 44.4621 162.157 42.4273 160.657 40.927L163.485 38.0986L166.314 35.2701C169.314 38.2707 171 42.3404 171 46.5839H167ZM155 192V188C159.418 188 163 184.418 163 180H167H171C171 188.837 163.837 196 155 196V192ZM30 192V196C21.1635 196 14 188.837 14 180H18H22C22 184.418 25.5817 188 30 188V192Z" fill="#CBD0D4" mask="url(#path-2-inside-1_771_3759)"/>
</g>
<path d="M119 40C119 44.4183 122.582 48 127 48H167V46.584C167 43.4014 165.736 40.3491 163.485 38.0986L128.901 3.51465C126.651 1.26425 123.599 0 120.416 0H119V40Z" fill="#CBD0D4"/>
<path d="M47 39H93" stroke="#CCD0D9" stroke-width="4"/>
<path d="M47 57H93" stroke="#CCD0D9" stroke-width="4"/>
<path d="M47 75H93" stroke="#CCD0D9" stroke-width="4"/>
<path d="M47 93H93" stroke="#CCD0D9" stroke-width="4"/>
<path d="M47 111H93" stroke="#CCD0D9" stroke-width="4"/>
<path d="M47 129H93" stroke="#CCD0D9" stroke-width="4"/>
<path d="M47 147H93" stroke="#CCD0D9" stroke-width="4"/>
<path d="M47 165H93" stroke="#CCD0D9" stroke-width="4"/>
<circle cx="98.5" cy="115.5" r="49.5" fill="#F4F4F4" stroke="#CBD0D4" stroke-width="14"/>
<rect x="124" y="153.606" width="15" height="38" transform="rotate(-45 124 153.606)" fill="#CBD0D4"/>
<rect x="138.125" y="171.997" width="21" height="53.3359" rx="10.5" transform="rotate(-45 138.125 171.997)" fill="#CBD0D4"/>
<path d="M95.6377 89.0959C97.4911 87.8087 99.9502 87.8088 101.804 89.0959L128.424 107.585C132.772 110.605 130.635 117.428 125.342 117.428H121.013V135.725C121.013 138.709 118.593 141.128 115.608 141.128H104.548V122.168H93.7402V141.128H81.833C78.8487 141.128 76.4289 138.709 76.4287 135.725V117.428H72.0996C66.8062 117.428 64.6698 110.605 69.0176 107.585L95.6377 89.0959Z" fill="#F26430"/>
</svg>
