<svg width="21" height="21" viewBox="0 0 21 21" fill="none" xmlns="http://www.w3.org/2000/svg">
<path d="M11 19.0093H1.6C1.44087 19.0093 1.28826 18.9461 1.17574 18.8335C1.06321 18.721 1 18.5684 1 18.4093V1.60928C1 1.45015 1.06321 1.29754 1.17574 1.18501C1.28826 1.07249 1.44087 1.00928 1.6 1.00928H18.4C18.5591 1.00928 18.7117 1.07249 18.8243 1.18501C18.9368 1.29754 19 1.45015 19 1.60928V11.0093" stroke="#515151" stroke-width="1.5" stroke-linecap="round" stroke-linejoin="round"/>
<path d="M1 14.0093L8 11.0093L13.5 13.5093M14 17.0093H17M17 17.0093H20M17 17.0093V14.0093M17 17.0093V20.0093M14 8.00928C13.4696 8.00928 12.9609 7.79856 12.5858 7.42349C12.2107 7.04842 12 6.53971 12 6.00928C12 5.47884 12.2107 4.97014 12.5858 4.59506C12.9609 4.21999 13.4696 4.00928 14 4.00928C14.5304 4.00928 15.0391 4.21999 15.4142 4.59506C15.7893 4.97014 16 5.47884 16 6.00928C16 6.53971 15.7893 7.04842 15.4142 7.42349C15.0391 7.79856 14.5304 8.00928 14 8.00928Z" stroke="#515151" stroke-width="1.5" stroke-linecap="round" stroke-linejoin="round"/>
</svg>
