<svg width="189" height="190" viewBox="0 0 189 190" fill="none" xmlns="http://www.w3.org/2000/svg">
<path d="M39.376 160.871H57.1736C65.1274 160.871 73.1836 161.706 80.9248 163.297C94.7465 166.127 108.965 166.442 122.899 164.226C129.734 163.123 136.444 161.43 142.523 158.501C148.005 155.847 154.722 152.122 159.234 147.94C163.739 143.767 168.432 136.939 171.756 131.6C174.622 127.016 173.236 121.401 168.716 117.992C166.174 116.147 163.115 115.154 159.975 115.154C156.834 115.154 153.775 116.147 151.233 117.992L137.003 128.741C131.491 132.915 125.466 136.75 118.292 137.892C117.426 138.028 116.52 138.152 115.575 138.262M115.575 138.262L114.709 138.356M115.575 138.262C116.835 137.92 117.991 137.271 118.938 136.372C120.126 135.347 121.097 134.093 121.792 132.686C122.488 131.279 122.894 129.746 122.986 128.179C123.079 126.612 122.856 125.042 122.331 123.563C121.806 122.084 120.99 120.725 119.93 119.567C118.904 118.427 117.709 117.453 116.386 116.676C94.3596 103.533 60.0795 113.542 39.376 128.229M115.575 138.262C115.291 138.325 115 138.357 114.709 138.356M114.709 138.356C109.959 138.832 105.175 138.843 100.423 138.388" stroke="#CBD0D4" stroke-width="6.17146" stroke-linecap="round"/>
<path d="M39.3762 122.378C39.3762 115.854 34.0875 110.566 27.5636 110.566C21.0397 110.566 15.751 115.854 15.751 122.378V161.754C15.751 168.277 21.0397 173.566 27.5636 173.566C34.0875 173.566 39.3762 168.277 39.3762 161.754V122.378Z" stroke="#CBD0D4" stroke-width="6.17146"/>
</svg>
