<svg width="240" height="156" viewBox="0 0 240 156" fill="none" xmlns="http://www.w3.org/2000/svg">
<rect x="0.046875" y="0.613281" width="239.765" height="154.809" rx="8" fill="#F3F3F3"/>
<rect x="133.846" y="14.8398" width="90" height="102" rx="4" fill="#CBD0D4"/>
<path d="M98.9551 139.161H133.846" stroke="#CCD0D9" stroke-width="4"/>
<path d="M179.266 65.2598C175.278 65.2598 171.865 63.84 169.025 61.0004C166.185 58.1608 164.766 54.7473 164.766 50.7598C164.766 46.7723 166.185 43.3587 169.025 40.5191C171.865 37.6796 175.278 36.2598 179.266 36.2598C183.253 36.2598 186.667 37.6796 189.506 40.5191C192.346 43.3587 193.766 46.7723 193.766 50.7598C193.766 54.7473 192.346 58.1608 189.506 61.0004C186.667 63.84 183.253 65.2598 179.266 65.2598ZM150.266 87.0098V84.1098C150.266 82.0556 150.794 80.1676 151.852 78.4457C152.909 76.7238 154.314 75.4098 156.066 74.5035C159.811 72.6306 163.618 71.2259 167.484 70.2895C171.351 69.353 175.278 68.8848 179.266 68.8848C183.253 68.8848 187.18 69.353 191.047 70.2895C194.914 71.2259 198.72 72.6306 202.466 74.5035C204.218 75.4098 205.622 76.7238 206.68 78.4457C207.737 80.1676 208.266 82.0556 208.266 84.1098V87.0098C208.266 89.0035 207.556 90.7103 206.136 92.1301C204.716 93.5499 203.009 94.2598 201.016 94.2598H157.516C155.522 94.2598 153.815 93.5499 152.395 92.1301C150.976 90.7103 150.266 89.0035 150.266 87.0098Z" fill="white"/>
<circle cx="29.0469" cy="62.9219" r="9" fill="#F26430"/>
<rect x="42.1621" y="53.9219" width="18" height="18" rx="1" fill="#FFA757"/>
<path d="M71.9641 55.4082C72.349 54.7415 73.3112 54.7415 73.6961 55.4082L81.4903 68.9082C81.8752 69.5749 81.3941 70.4082 80.6243 70.4082H65.0358C64.266 70.4082 63.7849 69.5749 64.1698 68.9082L71.9641 55.4082Z" fill="#D13636"/>
<path d="M20.0469 28.9834L38.0469 28.9834" stroke="#8090A0" stroke-width="4"/>
<path d="M20.0469 84.541H54.9374" stroke="#CCD0D9" stroke-width="4"/>
<path d="M60.1621 84.541H95.0527" stroke="#CCD0D9" stroke-width="4"/>
<path d="M20.0469 94.8926H75.1103" stroke="#CCD0D9" stroke-width="4"/>
<path d="M42.1621 28.9834L51.1621 28.9834" stroke="#8090A0" stroke-width="4"/>
</svg>
