<svg width="106" height="106" viewBox="0 0 106 106" fill="none" xmlns="http://www.w3.org/2000/svg">
<path opacity="0.2" d="M101.75 53C101.75 62.6418 98.8909 72.0672 93.5342 80.0841C88.1774 88.1009 80.5637 94.3493 71.6558 98.0391C62.7479 101.729 52.9459 102.694 43.4894 100.813C34.0328 98.9323 25.3464 94.2893 18.5286 87.4715C11.7108 80.6536 7.06777 71.9672 5.18674 62.5107C3.30571 53.0541 4.27112 43.2521 7.96089 34.3442C11.6507 25.4363 17.8991 17.8226 25.916 12.4659C33.9329 7.10914 43.3582 4.25 53 4.25C65.9293 4.25 78.3291 9.38615 87.4715 18.5285C96.6139 27.6709 101.75 40.0707 101.75 53Z" fill="#F26430"/>
<path d="M76.1867 37.9383C76.5645 38.3156 76.8641 38.7636 77.0686 39.2568C77.273 39.75 77.3782 40.2786 77.3782 40.8125C77.3782 41.3464 77.273 41.875 77.0686 42.3682C76.8641 42.8614 76.5645 43.3094 76.1867 43.6867L47.7492 72.1242C47.3719 72.5019 46.9239 72.8016 46.4307 73.006C45.9375 73.2105 45.4089 73.3157 44.875 73.3157C44.3411 73.3157 43.8125 73.2105 43.3193 73.006C42.8261 72.8016 42.3781 72.5019 42.0008 72.1242L29.8133 59.9367C29.051 59.1744 28.6228 58.1405 28.6228 57.0625C28.6228 55.9845 29.051 54.9506 29.8133 54.1883C30.5756 53.426 31.6095 52.9977 32.6875 52.9977C33.7656 52.9977 34.7995 53.426 35.5617 54.1883L44.875 63.5066L70.4383 37.9383C70.8156 37.5606 71.2636 37.2609 71.7568 37.0565C72.25 36.852 72.7786 36.7468 73.3125 36.7468C73.8464 36.7468 74.375 36.852 74.8682 37.0565C75.3614 37.2609 75.8094 37.5606 76.1867 37.9383ZM105.813 53C105.813 63.4453 102.715 73.6561 96.912 82.341C91.1089 91.026 82.8607 97.7951 73.2105 101.792C63.5603 105.79 52.9414 106.836 42.6968 104.798C32.4522 102.76 23.0419 97.73 15.6559 90.3441C8.26999 82.9581 3.24008 73.5478 1.2023 63.3032C-0.835481 53.0586 0.210383 42.4398 4.20764 32.7895C8.20489 23.1393 14.974 14.8911 23.659 9.08801C32.3439 3.2849 42.5547 0.1875 53 0.1875C67.0022 0.202287 80.4267 5.77119 90.3278 15.6723C100.229 25.5733 105.798 38.9978 105.813 53ZM97.6875 53C97.6875 44.1616 95.0667 35.5218 90.1563 28.173C85.246 20.8241 78.2668 15.0964 70.1012 11.7141C61.9356 8.33184 52.9505 7.44688 44.2819 9.17116C35.6134 10.8954 27.6508 15.1515 21.4012 21.4012C15.1515 27.6508 10.8955 35.6134 9.17118 44.2819C7.4469 52.9504 8.33187 61.9356 11.7142 70.1012C15.0964 78.2667 20.8242 85.246 28.173 90.1563C35.5218 95.0666 44.1617 97.6875 53 97.6875C64.8478 97.6741 76.2064 92.9616 84.584 84.584C92.9616 76.2064 97.6741 64.8477 97.6875 53Z" fill="#F26430"/>
</svg>
