<svg width="18" height="22" viewBox="0 0 18 22" fill="none" xmlns="http://www.w3.org/2000/svg">
<path d="M8.92346 7.67941L7.06248 9.31166C7.30848 10.1348 7.6521 10.9269 8.08636 11.672C8.53931 12.4117 9.08511 13.093 9.71106 13.7002L12.1211 12.9743C13.4713 12.5673 14.9452 12.9853 15.8431 14.0302L17.2157 15.6272C17.7715 16.2684 18.0501 17.0958 17.9926 17.9343C17.935 18.7728 17.5458 19.5564 16.9074 20.1192C14.6684 22.1166 11.221 22.7919 8.63992 20.8099C6.37045 19.0649 4.45089 16.9244 2.97822 14.4965C1.50181 12.0806 0.513316 9.4102 0.0663618 6.63012C-0.4287 3.50202 1.91384 0.998667 4.8347 0.14515C6.57642 -0.3652 8.43515 0.510315 9.07423 2.14256L9.82807 4.06737C10.3231 5.33444 9.96759 6.7643 8.92346 7.67941Z" fill="#515151"/>
</svg>
