<svg width="56" height="56" viewBox="0 0 56 56" fill="none" xmlns="http://www.w3.org/2000/svg">
<rect x="0.5" y="0.5" width="55" height="55" rx="11.5" fill="white" stroke="#F26430"/>
<path d="M27.9235 24.6794L26.0625 26.3117C26.3085 27.1348 26.6521 27.9269 27.0864 28.672C27.5393 29.4117 28.0851 30.093 28.7111 30.7002L31.1211 29.9743C32.4713 29.5673 33.9452 29.9853 34.8431 31.0302L36.2157 32.6272C36.7715 33.2684 37.0501 34.0958 36.9926 34.9343C36.935 35.7728 36.5458 36.5564 35.9074 37.1192C33.6684 39.1166 30.221 39.7919 27.6399 37.8099C25.3704 36.0649 23.4509 33.9244 21.9782 31.4965C20.5018 29.0806 19.5133 26.4102 19.0664 23.6301C18.5713 20.502 20.9138 17.9987 23.8347 17.1452C25.5764 16.6348 27.4351 17.5103 28.0742 19.1426L28.8281 21.0674C29.3231 22.3344 28.9676 23.7643 27.9235 24.6794Z" fill="#F26430"/>
</svg>
